<?xml version="1.0" encoding="utf-8"?>
<!-- Generator: Adobe Illustrator 24.1.2, SVG Export Plug-In . SVG Version: 6.00 Build 0)  -->
<svg version="1.1" id="Слой_1" xmlns="http://www.w3.org/2000/svg" xmlns:xlink="http://www.w3.org/1999/xlink" x="0px" y="0px"
	 viewBox="0 0 107.1 75.5" style="enable-background:new 0 0 107.1 75.5;" xml:space="preserve">
<style type="text/css">
	.st0{fill:#FFFFFF;}
	.st1{fill:#E20613;}
</style>
<g>
	<g>
		<path class="st0" d="M7.4,65.7v2.2H2.4v1.7h4.3v2H2.4v1.7h5.1v2.2H0v-9.8H7.4z"/>
		<path class="st0" d="M12.1,73.3h5.1v2.2H9.7v-9.8h2.3V73.3z"/>
		<path class="st0" d="M26,65.7v2.2h-5.1v1.7h4.3v2h-4.3v1.7H26v2.2h-7.4v-9.8H26z"/>
		<path class="st0" d="M46.8,67.9h-3.4v7.6H41v-7.6h-3.4v-2.2h9.3L46.8,67.9z"/>
		<path class="st0" d="M56.1,69.4c0,1.4-0.7,2.6-1.7,3.2l2,3h-2.9L52,73.1h-1.7v2.4h-2.4v-9.8h4.7C54.6,65.7,56.1,67.2,56.1,69.4z
			 M50.3,67.9v3h2c0.8,0,1.5-0.7,1.4-1.5c0-0.8-0.6-1.4-1.4-1.4H50.3z"/>
		<path class="st0" d="M67.1,70.6c0,2.7-2.2,4.9-4.9,4.9c-2.7,0-4.9-2.2-4.9-4.9c0-2.7,2.2-4.9,4.9-4.9C65,65.7,67.1,67.9,67.1,70.6
			z M59.5,70.6c0,1.5,1.2,2.8,2.8,2.8c1.5,0,2.8-1.2,2.8-2.8c0-1.5-1.2-2.8-2.8-2.8C60.7,67.8,59.5,69,59.5,70.6z"/>
		<path class="st0" d="M78.5,75.5h-2.4l-4.9-6v6h-2.4v-9.8h2.4l4.9,6v-6h2.4V75.5z"/>
		<path class="st0" d="M83.5,75.5h-2.3v-9.8h2.3L83.5,75.5z"/>
		<path class="st0" d="M91.9,69.6l4.1,5.8h-3l-2.7-4l-1.7,1.8v2.2h-2.3v-9.8h2.3V70l3.7-4.3h2.9L91.9,69.6z"/>
		<path class="st0" d="M34,69.6l4.1,5.8h-3l-2.7-4l-1.7,1.8v2.2h-2.3v-9.8h2.3V70l3.7-4.3h2.9L34,69.6z"/>
		<path class="st0" d="M104,74h-4.7l-0.6,1.5h-2.5l4.2-9.8h2.6l4.2,9.8h-2.5L104,74z M103.1,72l-1.5-3.7l-1.5,3.7H103.1z"/>
	</g>
	<g>
		<path class="st0" d="M40.1,61h-9.8L9.8,36.2V61H0V20.5h9.8l20.5,24.7V20.5h9.8V61z"/>
		<path class="st0" d="M59.1,61H46.8V33.5h12.3L59.1,61z"/>
		<path class="st0" d="M90.2,36.8L107.1,61H94.4L83.4,44.2l-7,7.6V61h-9.8V20.5h9.8v17.8l15.5-17.8h12.3L90.2,36.8z"/>
	</g>
	<path class="st1" d="M72,1.7c-2.3-2.3-6.2-2.3-8.5,0C61.2,4.1,62.3,10.7,60,13c-1.1,1.1-3.1,1.7-5.5,1.7h-7.7v12.2H59v-7.4
		c0-2.3,0.6-4.6,1.8-5.7c2.2-2.2,8.9-1.2,11.3-3.5C74.3,7.9,74.3,4.1,72,1.7L72,1.7L72,1.7z"/>
</g>
</svg>
