<?xml version="1.0" encoding="UTF-8"?> <svg xmlns="http://www.w3.org/2000/svg" width="397" height="227" viewBox="0 0 397 227" fill="none"><path d="M148.643 226.226h-36.326l-75.99-91.974v91.974H0v-150.2h36.327l75.99 91.604V76.027h36.326v150.199zm70.43-.001h-45.594V124.239h45.594v101.986zm115.282-89.748L397 226.226h-47.076l-40.775-62.305-25.948 28.185v34.12h-36.327v-150.2h36.327v66.014l57.456-66.013h45.593l-51.895 60.45z" fill="#fff"></path><path d="M266.891 6.305c-8.526-8.53-22.983-8.53-31.508 0-8.526 8.9-4.448 33.377-12.974 41.907-4.078 4.08-11.491 6.305-20.388 6.305h-28.542v45.245h45.223V72.318c0-8.53 2.224-17.06 6.672-21.139 8.155-8.159 32.991-4.45 41.887-12.98 8.155-8.9 8.155-22.993-.37-31.894z" fill="#E20613"></path></svg> 